HIERARCHY
ROOT SpineBase
{
  OFFSET 0.000000 0.000000 0.000000
  CHANNELS 6 Xposition Yposition Zposition Zrotation Xrotation Yrotation
  JOINT SpineMid
  {
    OFFSET 0.000000 32.129074 0.000000
    CHANNELS 3 Zrotation Xrotation Yrotation
    JOINT SpineShoulder
    {
      OFFSET 0.115926 23.791899 -0.959207
      CHANNELS 3 Zrotation Xrotation Yrotation
      JOINT Neck
      {
        OFFSET 0.094868 7.841192 -0.608277
        CHANNELS 3 Zrotation Xrotation Yrotation
        JOINT Head
        {
          OFFSET -4.513123 14.565584 -1.107107
          CHANNELS 3 Zrotation Xrotation Yrotation
          End Site
          {
            OFFSET 0 0 0
          }
        }
      }
      JOINT ShoulderLeft
      {
        OFFSET -18.285868 -6.089073 4.810216
        CHANNELS 3 Zrotation Xrotation Yrotation
        JOINT ElbowLeft
        {
          OFFSET -2.940773 -26.745484 3.706223
          CHANNELS 3 Zrotation Xrotation Yrotation
          JOINT WristLeft
          {
            OFFSET -2.750169 -25.943179 -1.631548
            CHANNELS 3 Zrotation Xrotation Yrotation
            JOINT HandLeft
            {
              OFFSET -0.283241 -6.668267 -0.855582
              CHANNELS 3 Zrotation Xrotation Yrotation
              JOINT HandTipLeft
              {
                OFFSET -0.281049 -6.653738 -2.508496
                CHANNELS 3 Zrotation Xrotation Yrotation
                End Site
                {
                  OFFSET 0 0 0
                }
              }
              JOINT ThumbLeft
              {
                OFFSET -2.495939 -0.647967 -3.257681
                CHANNELS 3 Zrotation Xrotation Yrotation
                End Site
                {
                  OFFSET 0 0 0
                }
              }
            }
          }
        }
      }
      JOINT ShoulderRight
      {
        OFFSET 15.794052 -3.265556 -6.755902
        CHANNELS 3 Zrotation Xrotation Yrotation
        JOINT ElbowRight
        {
          OFFSET 7.267436 -26.505033 -0.739699
          CHANNELS 3 Zrotation Xrotation Yrotation
          JOINT WristRight
          {
            OFFSET 1.919648 -23.600012 -5.348504
            CHANNELS 3 Zrotation Xrotation Yrotation
            JOINT HandRight
            {
              OFFSET -1.579464 -6.988766 -0.457768
              CHANNELS 3 Zrotation Xrotation Yrotation
              JOINT HandTipRight
              {
                OFFSET 0.378661 -6.771085 -0.576781
                CHANNELS 3 Zrotation Xrotation Yrotation
                End Site
                {
                  OFFSET 0 0 0
                }
              }
              JOINT ThumbRight
              {
                OFFSET 3.165210 -2.127311 -1.703205
                CHANNELS 3 Zrotation Xrotation Yrotation
                End Site
                {
                  OFFSET 0 0 0
                }
              }
            }
          }
        }
      }
    }
  }
  JOINT HipLeft
  {
    OFFSET -6.295934 0.170989 -1.939810
    CHANNELS 3 Zrotation Xrotation Yrotation
    JOINT KneeLeft
    {
      OFFSET 0.225180 -34.949854 4.100904
      CHANNELS 3 Zrotation Xrotation Yrotation
      JOINT AnkleLeft
      {
        OFFSET 3.936263 -36.085452 8.107590
        CHANNELS 3 Zrotation Xrotation Yrotation
        JOINT FootLeft
        {
          OFFSET -1.034633 -7.469345 -7.684159
          CHANNELS 3 Zrotation Xrotation Yrotation
          End Site
          {
            OFFSET 0 0 0
          }
        }
      }
    }
  }
  JOINT HipRight
  {
    OFFSET 7.748548 1.681053 -5.420038
    CHANNELS 3 Zrotation Xrotation Yrotation
    JOINT KneeRight
    {
      OFFSET 7.044956 -35.303574 1.339622
      CHANNELS 3 Zrotation Xrotation Yrotation
      JOINT AnkleRight
      {
        OFFSET 2.201916 -35.574377 6.064636
        CHANNELS 3 Zrotation Xrotation Yrotation
        JOINT FootRight
        {
          OFFSET -1.417416 -6.488979 -8.968365
          CHANNELS 3 Zrotation Xrotation Yrotation
          End Site
          {
            OFFSET 0 0 0
          }
        }
      }
    }
  }
}
MOTION
Frames: 5
Frame Time: 0.033333
-67.188417 80.417611 329.474659 2.989756 -1.545680 30.462470 0.451352 -0.526653 -30.267447 -0.023215 -0.607602 0.173589 16.501119 -11.696588 -1.312160 0.000000 0.000000 0.000000 1.476662 24.810544 -3.367462 29.572803 78.298876 -39.208246 -5.922676 40.436157 3.172261 63.186499 -26.650048 72.597848 0.000000 0.000000 0.000000 0.000000 0.000000 0.000000 -11.262825 27.157210 8.962611 -93.464471 10.943294 10.714538 11.623812 11.292668 -16.788478 -16.380293 -13.112032 -9.728844 0.000000 0.000000 0.000000 0.000000 0.000000 0.000000 -0.623976 5.875955 -30.507901 0.406146 -1.390235 0.222367 1.691894 -10.907079 -0.396114 0.000000 0.000000 0.000000 -0.053999 2.768932 -30.242492 -0.961101 -2.379746 -0.212013 1.784919 -18.686288 2.059336 0.000000 0.000000 0.000000
-67.196646 80.357153 329.539629 3.206984 -1.728140 30.992646 0.426291 -0.516681 -30.781390 -0.042491 -0.602768 0.181612 16.679652 -11.364829 -1.303841 0.000000 0.000000 0.000000 1.315146 24.988051 -3.391723 29.564013 78.304111 -39.205817 -4.520170 41.895083 4.593017 61.713994 -30.399928 72.189573 0.000000 0.000000 0.000000 0.000000 0.000000 0.000000 -10.912224 26.855557 8.646324 -93.867346 10.416609 10.681373 10.078210 11.601985 -16.694301 -11.782311 -12.067354 -6.355550 0.000000 0.000000 0.000000 0.000000 0.000000 0.000000 -0.701261 6.241415 -31.038587 0.551742 -1.484403 0.247269 0.558853 -7.612968 0.145589 0.000000 0.000000 0.000000 -0.064251 3.038451 -30.762031 -1.012164 -2.439743 -0.222446 1.704445 -18.903178 2.288389 0.000000 0.000000 0.000000
-67.209579 80.302773 329.607880 3.396848 -1.896716 31.467052 0.406947 -0.483887 -31.241778 -0.059062 -0.597096 0.188078 16.836040 -11.088085 -1.295010 0.000000 0.000000 0.000000 1.183157 25.129177 -3.410846 29.552965 78.307693 -39.200118 -5.995217 42.500883 3.215931 63.701695 -31.772831 73.628136 0.000000 0.000000 0.000000 0.000000 0.000000 0.000000 -10.786680 26.630482 8.448033 -93.898990 10.253286 10.954349 9.960348 15.146602 -14.434941 -11.406517 -19.178445 -15.326052 0.000000 0.000000 0.000000 0.000000 0.000000 0.000000 -0.756601 6.575660 -31.513050 0.664232 -1.534629 0.269107 0.152242 -5.819409 0.232819 0.000000 0.000000 0.000000 -0.050161 3.274529 -31.226841 -1.084854 -2.476709 -0.234000 1.742618 -18.867538 2.244619 0.000000 0.000000 0.000000
-67.225005 80.255529 329.674222 3.557883 -2.048789 31.900853 0.394927 -0.440292 -31.663653 -0.070055 -0.593828 0.193597 16.924620 -10.898789 -1.298677 0.000000 0.000000 0.000000 1.072405 25.244315 -3.426368 29.545300 78.310477 -39.196152 -8.557627 40.910313 0.680772 64.034992 -30.656721 71.647390 0.000000 0.000000 0.000000 0.000000 0.000000 0.000000 -11.006897 26.559651 8.424863 -93.821577 11.060926 12.371547 12.364584 17.050137 -13.335570 -14.547339 -24.552558 -23.085374 0.000000 0.000000 0.000000 0.000000 0.000000 0.000000 -0.784159 6.869923 -31.946580 0.750983 -1.530274 0.291694 -0.176321 -4.265442 0.284645 0.000000 0.000000 0.000000 -0.010573 3.469558 -31.652831 -1.189528 -2.488014 -0.247673 1.824215 -18.931272 2.193344 0.000000 0.000000 0.000000
-67.233841 80.221194 329.727972 3.682756 -2.164013 32.197992 0.390864 -0.391240 -31.952016 -0.086004 -0.584026 0.196761 16.864929 -10.808723 -1.317363 0.000000 0.000000 0.000000 0.996259 25.309021 -3.435766 29.539772 78.313613 -39.193518 -8.323640 38.981341 0.816587 57.790990 -33.562907 63.836296 0.000000 0.000000 0.000000 0.000000 0.000000 0.000000 -11.557511 26.627150 8.577234 -93.754042 12.360663 14.303168 16.548647 18.244160 -12.618549 -21.393462 -29.901938 -33.652018 0.000000 0.000000 0.000000 0.000000 0.000000 0.000000 -0.822039 7.073658 -32.241638 0.799639 -1.446086 0.310418 -0.533440 -3.312796 0.473661 0.000000 0.000000 0.000000 -0.016189 3.630091 -31.944814 -1.213799 -2.505601 -0.251696 1.877204 -18.723522 2.042631 0.000000 0.000000 0.000000
